#define 1054a770e5b54788a10aa9436bc6ac05gyQbqGaNmOKF02X9_width 64
#define 1054a770e5b54788a10aa9436bc6ac05gyQbqGaNmOKF02X9_height 64
static char 1054a770e5b54788a10aa9436bc6ac05gyQbqGaNmOKF02X9_bits[] = {
  0x21, 0x84, 0x10, 0x42, 0x08, 0x21, 0x84, 0x10, 0x10, 0x42, 0x08, 0x21, 
  0x84, 0x10, 0x42, 0x08, 0x08, 0x21, 0x84, 0x10, 0x42, 0x08, 0x21, 0x84, 
  0x84, 0x10, 0x42, 0x08, 0x21, 0x84, 0x10, 0x42, 0x42, 0x08, 0x21, 0x84, 
  0x10, 0x42, 0x08, 0x21, 0x21, 0x84, 0x10, 0x42, 0x08, 0x21, 0x84, 0x10, 
  0x10, 0x42, 0x08, 0x21, 0x84, 0x10, 0x42, 0x08, 0x08, 0x21, 0x84, 0x10, 
  0x42, 0x08, 0x21, 0x84, 0x84, 0x10, 0x42, 0x08, 0x21, 0x84, 0x10, 0x42, 
  0x42, 0x08, 0x21, 0x84, 0x10, 0x42, 0x08, 0x21, 0x21, 0x84, 0x10, 0x42, 
  0x08, 0x21, 0x84, 0x10, 0x10, 0x42, 0x08, 0x21, 0x84, 0x10, 0x42, 0x08, 
  0x08, 0x21, 0x84, 0x10, 0x42, 0x08, 0x21, 0x84, 0x84, 0x10, 0x42, 0x08, 
  0x21, 0x84, 0x10, 0x42, 0x42, 0x08, 0x21, 0x84, 0x10, 0x42, 0x08, 0x21, 
  0x21, 0x84, 0x10, 0x42, 0x08, 0x21, 0x84, 0x10, 0x10, 0x42, 0x08, 0x21, 
  0x84, 0x10, 0x42, 0x08, 0x08, 0x21, 0x84, 0x10, 0x42, 0x08, 0x21, 0x84, 
  0x84, 0x10, 0x42, 0x08, 0x21, 0x84, 0x10, 0x42, 0x42, 0x08, 0x21, 0x84, 
  0x10, 0x42, 0x08, 0x21, 0x21, 0x84, 0x10, 0x42, 0x08, 0x21, 0x84, 0x10, 
  0x10, 0x42, 0x08, 0x21, 0x84, 0x10, 0x42, 0x08, 0x08, 0x21, 0x84, 0x10, 
  0x42, 0x08, 0x21, 0x84, 0x84, 0x10, 0x42, 0x08, 0x21, 0x84, 0x10, 0x42, 
  0x42, 0x08, 0x21, 0x84, 0x10, 0x42, 0x08, 0x21, 0x21, 0x84, 0x10, 0x42, 
  0x08, 0x21, 0x84, 0x10, 0x10, 0x42, 0x08, 0x21, 0x84, 0x10, 0x42, 0x08, 
  0x08, 0x21, 0x84, 0x10, 0x42, 0x08, 0x21, 0x84, 0x84, 0x10, 0x42, 0x08, 
  0x21, 0x84, 0x10, 0x42, 0x42, 0x08, 0x21, 0x84, 0x10, 0x42, 0x08, 0x21, 
  0x21, 0x84, 0x10, 0x42, 0x08, 0x21, 0x84, 0x10, 0x10, 0x42, 0x08, 0x21, 
  0x84, 0x10, 0x42, 0x08, 0x08, 0x21, 0x84, 0x10, 0x42, 0x08, 0x21, 0x84, 
  0x84, 0x10, 0x42, 0x08, 0x21, 0x84, 0x10, 0x42, 0x42, 0x08, 0x21, 0x84, 
  0x10, 0x42, 0x08, 0x21, 0x21, 0x84, 0x10, 0x42, 0x08, 0x21, 0x84, 0x10, 
  0x10, 0x42, 0x08, 0x21, 0x84, 0x10, 0x42, 0x08, 0x08, 0x21, 0x84, 0x10, 
  0x42, 0x08, 0x21, 0x84, 0x84, 0x10, 0x42, 0x08, 0x21, 0x84, 0x10, 0x42, 
  0x42, 0x08, 0x21, 0x84, 0x10, 0x42, 0x08, 0x21, 0x21, 0x84, 0x10, 0x42, 
  0x08, 0x21, 0x84, 0x10, 0x10, 0x42, 0x08, 0x21, 0x84, 0x10, 0x42, 0x08, 
  0x08, 0x21, 0x84, 0x10, 0x42, 0x08, 0x21, 0x84, 0x84, 0x10, 0x42, 0x08, 
  0x21, 0x84, 0x10, 0x42, 0x42, 0x08, 0x21, 0x84, 0x10, 0x42, 0x08, 0x21, 
  0x21, 0x84, 0x10, 0x42, 0x08, 0x21, 0x84, 0x10, 0x10, 0x42, 0x08, 0x21, 
  0x84, 0x10, 0x42, 0x08, 0x08, 0x21, 0x84, 0x10, 0x42, 0x08, 0x21, 0x84, 
  0x84, 0x10, 0x42, 0x08, 0x21, 0x84, 0x10, 0x42, 0x42, 0x08, 0x21, 0x84, 
  0x10, 0x42, 0x08, 0x21, 0x21, 0x84, 0x10, 0x42, 0x08, 0x21, 0x84, 0x10, 
  0x10, 0x42, 0x08, 0x21, 0x84, 0x10, 0x42, 0x08, 0x08, 0x21, 0x84, 0x10, 
  0x42, 0x08, 0x21, 0x84, 0x84, 0x10, 0x42, 0x08, 0x21, 0x84, 0x10, 0x42, 
  0x42, 0x08, 0x21, 0x84, 0x10, 0x42, 0x08, 0x21, 0x21, 0x84, 0x10, 0x42, 
  0x08, 0x21, 0x84, 0x10, 0x10, 0x42, 0x08, 0x21, 0x84, 0x10, 0x42, 0x08, 
  0x08, 0x21, 0x84, 0x10, 0x42, 0x08, 0x21, 0x84, 0x84, 0x10, 0x42, 0x08, 
  0x21, 0x84, 0x10, 0x42, 0x42, 0x08, 0x21, 0x84, 0x10, 0x42, 0x08, 0x21, 
  0x21, 0x84, 0x10, 0x42, 0x08, 0x21, 0x84, 0x10, 0x10, 0x42, 0x08, 0x21, 
  0x84, 0x10, 0x42, 0x08, 0x08, 0x21, 0x84, 0x10, 0x42, 0x08, 0x21, 0x84, 
  0x84, 0x10, 0x42, 0x08, 0x21, 0x84, 0x10, 0x42, };
