#define f6cf1837ec2d4eca95bbbb7656701913r2XN7c2flDlD1p54_width 64
#define f6cf1837ec2d4eca95bbbb7656701913r2XN7c2flDlD1p54_height 64
static char f6cf1837ec2d4eca95bbbb7656701913r2XN7c2flDlD1p54_bits[] = {
  0x21, 0x84, 0x10, 0x42, 0x08, 0x21, 0x84, 0x10, 0x10, 0x42, 0x08, 0x21, 
  0x84, 0x10, 0x42, 0x08, 0x08, 0x21, 0x84, 0x10, 0x42, 0x08, 0x21, 0x84, 
  0x84, 0x10, 0x42, 0x08, 0x21, 0x84, 0x10, 0x42, 0xF2, 0x0F, 0xF1, 0x8F, 
  0xF0, 0x4F, 0xF8, 0x2F, 0xF1, 0x8F, 0xF0, 0x4F, 0xF8, 0x2F, 0xF4, 0x1F, 
  0x30, 0x4C, 0x38, 0x2C, 0x34, 0x1C, 0x32, 0x0C, 0x38, 0x2C, 0x34, 0x1C, 
  0x32, 0x0C, 0x31, 0x8C, 0x34, 0x1C, 0x32, 0x0C, 0x31, 0x8C, 0x30, 0x4C, 
  0x32, 0x0C, 0x31, 0x8C, 0x30, 0x4C, 0x38, 0x2C, 0x31, 0x8C, 0x30, 0x4C, 
  0x38, 0x2C, 0x34, 0x1C, 0x30, 0x4C, 0x38, 0x2C, 0x34, 0x1C, 0x32, 0x0C, 
  0x38, 0xFC, 0x3F, 0xFC, 0x3F, 0xFC, 0x3F, 0x8C, 0x34, 0xFC, 0x3F, 0xFC, 
  0x3F, 0xFC, 0x3F, 0x4C, 0x32, 0x00, 0x00, 0x00, 0x00, 0x00, 0x00, 0x2C, 
  0x31, 0x00, 0x00, 0x00, 0x00, 0x00, 0x00, 0x1C, 0x30, 0x00, 0x00, 0x00, 
  0x00, 0x00, 0x00, 0x0C, 0x38, 0x00, 0x00, 0x00, 0x00, 0x00, 0x00, 0x8C, 
  0xF4, 0x03, 0x00, 0x00, 0x00, 0x00, 0xC0, 0x4F, 0xF2, 0x03, 0x00, 0x00, 
  0x00, 0x00, 0xC0, 0x2F, 0x21, 0x03, 0x00, 0x00, 0x00, 0x00, 0xC0, 0x10, 
  0x10, 0x03, 0x00, 0x00, 0x00, 0x00, 0xC0, 0x08, 0x08, 0x3F, 0x00, 0x00, 
  0x00, 0x00, 0xFC, 0x84, 0x84, 0x3F, 0x00, 0x00, 0x00, 0x00, 0xFC, 0x42, 
  0x42, 0x38, 0x00, 0x00, 0x00, 0x00, 0x0C, 0x21, 0x21, 0x34, 0x00, 0x00, 
  0x00, 0x00, 0x8C, 0x10, 0x10, 0xF2, 0x03, 0x00, 0x00, 0xC0, 0x4F, 0x08, 
  0x08, 0xF1, 0x03, 0x00, 0x00, 0xC0, 0x2F, 0x84, 0x84, 0x10, 0x03, 0x00, 
  0x00, 0xC0, 0x10, 0x42, 0x42, 0x08, 0x03, 0x00, 0x00, 0xC0, 0x08, 0x21, 
  0x21, 0x84, 0x03, 0x00, 0x00, 0xC0, 0x84, 0x10, 0x10, 0x42, 0x03, 0x00, 
  0x00, 0xC0, 0x42, 0x08, 0x08, 0x21, 0x03, 0x00, 0x00, 0xC0, 0x21, 0x84, 
  0x84, 0x10, 0x03, 0x00, 0x00, 0xC0, 0x10, 0x42, 0x42, 0x08, 0x03, 0x00, 
  0x00, 0xC0, 0x08, 0x21, 0x21, 0x84, 0x03, 0x00, 0x00, 0xC0, 0x84, 0x10, 
  0x10, 0x42, 0x03, 0x00, 0x00, 0xC0, 0x42, 0x08, 0x08, 0x21, 0x03, 0x00, 
  0x00, 0xC0, 0x21, 0x84, 0x84, 0x10, 0x03, 0x00, 0x00, 0xC0, 0x10, 0x42, 
  0x42, 0x08, 0x03, 0x00, 0x00, 0xC0, 0x08, 0x21, 0x21, 0x84, 0x03, 0x00, 
  0x00, 0xC0, 0x84, 0x10, 0x10, 0x42, 0x03, 0x00, 0x00, 0xC0, 0x42, 0x08, 
  0x08, 0x21, 0x03, 0x00, 0x00, 0xC0, 0x21, 0x84, 0x84, 0x10, 0x03, 0x00, 
  0x00, 0xC0, 0x10, 0x42, 0x42, 0x08, 0x03, 0x00, 0x00, 0xC0, 0x08, 0x21, 
  0x21, 0x84, 0x03, 0x00, 0x00, 0xC0, 0x84, 0x10, 0x10, 0x42, 0x03, 0x00, 
  0x00, 0xC0, 0x42, 0x08, 0x08, 0x21, 0x03, 0x00, 0x00, 0xC0, 0x21, 0x84, 
  0x84, 0xF0, 0x03, 0x00, 0x00, 0xC0, 0x1F, 0x42, 0x42, 0xF8, 0x03, 0x00, 
  0x00, 0xC0, 0x0F, 0x21, 0x21, 0x34, 0x00, 0x00, 0x00, 0x00, 0x8C, 0x10, 
  0x10, 0x32, 0x00, 0x00, 0x00, 0x00, 0x4C, 0x08, 0x08, 0x3F, 0x00, 0x00, 
  0x00, 0x00, 0xFC, 0x84, 0x84, 0x3F, 0x00, 0x00, 0x00, 0x00, 0xFC, 0x42, 
  0x42, 0x03, 0x00, 0x00, 0x00, 0x00, 0xC0, 0x21, 0x21, 0x03, 0x00, 0x00, 
  0x00, 0x00, 0xC0, 0x10, 0x10, 0x03, 0x00, 0x00, 0x00, 0x00, 0xC0, 0x08, 
  0x08, 0x03, 0x00, 0x00, 0x00, 0x00, 0xC0, 0x84, 0x84, 0xFF, 0xFF, 0xFF, 
  0xFF, 0xFF, 0xFF, 0x42, 0x42, 0xFF, 0xFF, 0xFF, 0xFF, 0xFF, 0xFF, 0x21, 
  0x21, 0x84, 0x10, 0x42, 0x08, 0x21, 0x84, 0x10, 0x10, 0x42, 0x08, 0x21, 
  0x84, 0x10, 0x42, 0x08, 0x08, 0x21, 0x84, 0x10, 0x42, 0x08, 0x21, 0x84, 
  0x84, 0x10, 0x42, 0x08, 0x21, 0x84, 0x10, 0x42, };
