#define 54ed4060d60243a9f479250c99093fe7Apn9FjL1Ad4IhjRf_width 64
#define 54ed4060d60243a9f479250c99093fe7Apn9FjL1Ad4IhjRf_height 64
static char 54ed4060d60243a9f479250c99093fe7Apn9FjL1Ad4IhjRf_bits[] = {
  0x21, 0x84, 0x10, 0x42, 0x08, 0x21, 0x84, 0x10, 0x10, 0x42, 0x08, 0x21, 
  0x84, 0x10, 0x42, 0x08, 0x08, 0x21, 0x84, 0x10, 0x42, 0x08, 0x21, 0x84, 
  0x84, 0x10, 0x42, 0x08, 0x21, 0x84, 0x10, 0x42, 0x42, 0x08, 0x21, 0xFC, 
  0x3F, 0x42, 0x08, 0x21, 0x21, 0x84, 0x10, 0xFE, 0x3F, 0x21, 0x84, 0x10, 
  0x10, 0x42, 0x08, 0x0F, 0xF0, 0x10, 0x42, 0x08, 0x08, 0x21, 0x84, 0x0F, 
  0xF0, 0x08, 0x21, 0x84, 0x84, 0x10, 0xC2, 0xC3, 0xC3, 0x87, 0x10, 0x42, 
  0x42, 0x08, 0xE1, 0xC3, 0xC3, 0x43, 0x08, 0x21, 0x21, 0x84, 0xF0, 0xF0, 
  0x0F, 0x2F, 0x84, 0x10, 0x10, 0x42, 0xF8, 0xF0, 0x0F, 0x1F, 0x42, 0x08, 
  0x08, 0x21, 0x3C, 0xF0, 0x0F, 0x3C, 0x21, 0x84, 0x84, 0x10, 0x3E, 0xF0, 
  0x0F, 0xBC, 0x10, 0x42, 0x42, 0x08, 0x0F, 0xC0, 0x03, 0xF0, 0x08, 0x21, 
  0x21, 0x84, 0x0F, 0xC0, 0x03, 0xF0, 0x84, 0x10, 0x10, 0xC2, 0x03, 0xC0, 
  0x03, 0xC0, 0x43, 0x08, 0x08, 0xE1, 0x03, 0xC0, 0x03, 0xC0, 0x23, 0x84, 
  0x84, 0xD0, 0x00, 0xC0, 0x03, 0x00, 0x13, 0x42, 0x42, 0xC8, 0x00, 0xC0, 
  0x03, 0x00, 0x0B, 0x21, 0x21, 0xC4, 0x00, 0x00, 0x00, 0x00, 0x87, 0x10, 
  0x10, 0xC2, 0x00, 0x00, 0x00, 0x00, 0x43, 0x08, 0x08, 0xE1, 0x00, 0x00, 
  0x00, 0x00, 0x23, 0x84, 0x84, 0xD0, 0x00, 0x00, 0x00, 0x00, 0x13, 0x42, 
  0x42, 0xC8, 0x00, 0x00, 0x00, 0x00, 0x0B, 0x21, 0x21, 0xC4, 0x00, 0x00, 
  0x00, 0x00, 0x87, 0x10, 0x10, 0xC2, 0x00, 0x00, 0x00, 0x00, 0x43, 0x08, 
  0x08, 0xE1, 0x00, 0x00, 0x00, 0x00, 0x23, 0x84, 0x84, 0xD0, 0x00, 0x00, 
  0x00, 0x00, 0x13, 0x42, 0x42, 0xC8, 0x00, 0x00, 0x00, 0x00, 0x0B, 0x21, 
  0x21, 0xC4, 0x03, 0x00, 0x00, 0xC0, 0x87, 0x10, 0x10, 0xC2, 0x03, 0x00, 
  0x00, 0xC0, 0x43, 0x08, 0x08, 0x21, 0x0F, 0x00, 0x00, 0xF0, 0x21, 0x84, 
  0x84, 0x10, 0x0F, 0x00, 0x00, 0xF0, 0x10, 0x42, 0x42, 0x08, 0xFD, 0x00, 
  0x00, 0x7F, 0x08, 0x21, 0x21, 0x84, 0xFC, 0x00, 0x00, 0x3F, 0x84, 0x10, 
  0x10, 0x42, 0xC8, 0x00, 0x00, 0x13, 0x42, 0x08, 0x08, 0x21, 0xC4, 0x00, 
  0x00, 0x0B, 0x21, 0x84, 0x84, 0x10, 0xC2, 0x00, 0x00, 0x87, 0x10, 0x42, 
  0x42, 0x08, 0xE1, 0x00, 0x00, 0x43, 0x08, 0x21, 0x21, 0x84, 0xFC, 0x00, 
  0x00, 0x3F, 0x84, 0x10, 0x10, 0x42, 0xFC, 0x00, 0x00, 0x3F, 0x42, 0x08, 
  0x08, 0x21, 0x0C, 0x00, 0x00, 0x30, 0x21, 0x84, 0x84, 0x10, 0x0E, 0x00, 
  0x00, 0xB0, 0x10, 0x42, 0x42, 0x08, 0x0F, 0x00, 0x00, 0xF0, 0x08, 0x21, 
  0x21, 0x84, 0x0F, 0x00, 0x00, 0xF0, 0x84, 0x10, 0x10, 0x42, 0x03, 0x00, 
  0x00, 0xC0, 0x42, 0x08, 0x08, 0x21, 0x03, 0x00, 0x00, 0xC0, 0x21, 0x84, 
  0x84, 0xF0, 0x03, 0x00, 0x00, 0xC0, 0x1F, 0x42, 0x42, 0xF8, 0x03, 0x00, 
  0x00, 0xC0, 0x0F, 0x21, 0x21, 0x34, 0x00, 0x00, 0x00, 0x00, 0x8C, 0x10, 
  0x10, 0x32, 0x00, 0x00, 0x00, 0x00, 0x4C, 0x08, 0x08, 0x3F, 0x00, 0x00, 
  0x00, 0x00, 0xFC, 0x84, 0x84, 0x3F, 0x00, 0x00, 0x00, 0x00, 0xFC, 0x42, 
  0x42, 0x03, 0x00, 0x00, 0x00, 0x00, 0xC0, 0x21, 0x21, 0x03, 0x00, 0x00, 
  0x00, 0x00, 0xC0, 0x10, 0x10, 0x03, 0x00, 0x00, 0x00, 0x00, 0xC0, 0x08, 
  0x08, 0x03, 0x00, 0x00, 0x00, 0x00, 0xC0, 0x84, 0x84, 0xFF, 0xFF, 0xFF, 
  0xFF, 0xFF, 0xFF, 0x42, 0x42, 0xFF, 0xFF, 0xFF, 0xFF, 0xFF, 0xFF, 0x21, 
  0x21, 0x84, 0x10, 0x42, 0x08, 0x21, 0x84, 0x10, 0x10, 0x42, 0x08, 0x21, 
  0x84, 0x10, 0x42, 0x08, 0x08, 0x21, 0x84, 0x10, 0x42, 0x08, 0x21, 0x84, 
  0x84, 0x10, 0x42, 0x08, 0x21, 0x84, 0x10, 0x42, };
