#define 54860617f3434cd2d5485791382c1b73rzRuTH3FIULFV4Xp_width 64
#define 54860617f3434cd2d5485791382c1b73rzRuTH3FIULFV4Xp_height 64
static char 54860617f3434cd2d5485791382c1b73rzRuTH3FIULFV4Xp_bits[] = {
  0x21, 0x84, 0x10, 0x42, 0x08, 0x21, 0x84, 0x10, 0x10, 0x42, 0x08, 0x21, 
  0x84, 0x10, 0x42, 0x08, 0x08, 0x21, 0x84, 0x10, 0x42, 0x08, 0x21, 0x84, 
  0x84, 0x10, 0x42, 0x08, 0x21, 0x84, 0x10, 0x42, 0x42, 0x08, 0x21, 0xF4, 
  0x1F, 0x42, 0x08, 0x21, 0x21, 0x84, 0x10, 0xF2, 0x0F, 0x21, 0x84, 0x10, 
  0x10, 0x42, 0x08, 0x31, 0x8C, 0x10, 0x42, 0x08, 0x08, 0x21, 0x84, 0x3F, 
  0xFC, 0x08, 0x21, 0x84, 0x84, 0x10, 0x42, 0x3F, 0xFC, 0x84, 0x10, 0x42, 
  0x42, 0x08, 0x21, 0x03, 0xC0, 0x42, 0x08, 0x21, 0x21, 0x84, 0x10, 0x03, 
  0xC0, 0x21, 0x84, 0x10, 0x10, 0x42, 0x08, 0x3F, 0xFC, 0x10, 0x42, 0x08, 
  0x08, 0x21, 0x84, 0x3F, 0xFC, 0x08, 0x21, 0x84, 0x84, 0x10, 0x42, 0x38, 
  0x2C, 0x84, 0x10, 0x42, 0x42, 0x08, 0x21, 0x34, 0x1C, 0x42, 0x08, 0x21, 
  0x21, 0x84, 0x10, 0x32, 0x0C, 0x21, 0x84, 0x10, 0x10, 0x42, 0x08, 0x3D, 
  0xBC, 0x10, 0x42, 0x08, 0x08, 0x21, 0x84, 0x3C, 0x7C, 0x08, 0x21, 0x84, 
  0x84, 0x10, 0x42, 0x0C, 0x30, 0x84, 0x10, 0x42, 0x42, 0x08, 0x21, 0x0C, 
  0x30, 0x42, 0x08, 0x21, 0x21, 0x84, 0x10, 0x0F, 0xF0, 0x21, 0x84, 0x10, 
  0x10, 0x42, 0x08, 0x0F, 0xF0, 0x10, 0x42, 0x08, 0x08, 0x21, 0x84, 0x03, 
  0xC0, 0x08, 0x21, 0x84, 0x84, 0x10, 0x42, 0x03, 0xC0, 0x84, 0x10, 0x42, 
  0x42, 0x08, 0xF1, 0x03, 0xC0, 0x4F, 0x08, 0x21, 0x21, 0x84, 0xF0, 0x03, 
  0xC0, 0x2F, 0x84, 0x10, 0x10, 0x42, 0x38, 0x00, 0x00, 0x1C, 0x42, 0x08, 
  0x08, 0x21, 0x34, 0x00, 0x00, 0x0C, 0x21, 0x84, 0x84, 0x10, 0x3E, 0x00, 
  0x00, 0xBC, 0x10, 0x42, 0x42, 0x08, 0x3D, 0x00, 0x00, 0x7C, 0x08, 0x21, 
  0x21, 0x84, 0xFC, 0x00, 0x00, 0x3F, 0x84, 0x10, 0x10, 0x42, 0xFC, 0x00, 
  0x00, 0x3F, 0x42, 0x08, 0x08, 0x21, 0xC4, 0x00, 0x00, 0x0B, 0x21, 0x84, 
  0x84, 0x10, 0xC2, 0x00, 0x00, 0x87, 0x10, 0x42, 0x42, 0x08, 0xE1, 0x00, 
  0x00, 0x43, 0x08, 0x21, 0x21, 0x84, 0xD0, 0x00, 0x00, 0x23, 0x84, 0x10, 
  0x10, 0x42, 0xFC, 0x00, 0x00, 0x3F, 0x42, 0x08, 0x08, 0x21, 0xFC, 0x00, 
  0x00, 0x3F, 0x21, 0x84, 0x84, 0x10, 0x0E, 0x00, 0x00, 0xB0, 0x10, 0x42, 
  0x42, 0x08, 0x0D, 0x00, 0x00, 0x70, 0x08, 0x21, 0x21, 0x84, 0x0C, 0x00, 
  0x00, 0x30, 0x84, 0x10, 0x10, 0x42, 0x0C, 0x00, 0x00, 0x30, 0x42, 0x08, 
  0x08, 0x21, 0x0C, 0x00, 0x00, 0x30, 0x21, 0x84, 0x84, 0x10, 0x0E, 0x00, 
  0x00, 0xB0, 0x10, 0x42, 0x42, 0x08, 0x0F, 0x00, 0x00, 0xF0, 0x08, 0x21, 
  0x21, 0x84, 0x0F, 0x00, 0x00, 0xF0, 0x84, 0x10, 0x10, 0x42, 0x03, 0x00, 
  0x00, 0xC0, 0x42, 0x08, 0x08, 0x21, 0x03, 0x00, 0x00, 0xC0, 0x21, 0x84, 
  0x84, 0xF0, 0x03, 0x00, 0x00, 0xC0, 0x1F, 0x42, 0x42, 0xF8, 0x03, 0x00, 
  0x00, 0xC0, 0x0F, 0x21, 0x21, 0x34, 0x00, 0x00, 0x00, 0x00, 0x8C, 0x10, 
  0x10, 0x32, 0x00, 0x00, 0x00, 0x00, 0x4C, 0x08, 0x08, 0x3F, 0x00, 0x00, 
  0x00, 0x00, 0xFC, 0x84, 0x84, 0x3F, 0x00, 0x00, 0x00, 0x00, 0xFC, 0x42, 
  0x42, 0x03, 0x00, 0x00, 0x00, 0x00, 0xC0, 0x21, 0x21, 0x03, 0x00, 0x00, 
  0x00, 0x00, 0xC0, 0x10, 0x10, 0x03, 0x00, 0x00, 0x00, 0x00, 0xC0, 0x08, 
  0x08, 0x03, 0x00, 0x00, 0x00, 0x00, 0xC0, 0x84, 0x84, 0xFF, 0xFF, 0xFF, 
  0xFF, 0xFF, 0xFF, 0x42, 0x42, 0xFF, 0xFF, 0xFF, 0xFF, 0xFF, 0xFF, 0x21, 
  0x21, 0x84, 0x10, 0x42, 0x08, 0x21, 0x84, 0x10, 0x10, 0x42, 0x08, 0x21, 
  0x84, 0x10, 0x42, 0x08, 0x08, 0x21, 0x84, 0x10, 0x42, 0x08, 0x21, 0x84, 
  0x84, 0x10, 0x42, 0x08, 0x21, 0x84, 0x10, 0x42, };
