#define WhiteP_width 64
#define WhiteP_height 64
static char WhiteP_bits[] = {
  0x00, 0x00, 0x00, 0x00, 0x00, 0x00, 0x00, 0x00, 0x00, 0x00, 0x00, 0x00, 
  0x00, 0x00, 0x00, 0x00, 0x00, 0x00, 0x00, 0x00, 0x00, 0x00, 0x00, 0x00, 
  0x00, 0x00, 0x00, 0x00, 0x00, 0x00, 0x00, 0x00, 0x00, 0x00, 0x80, 0xFF, 
  0xFF, 0x01, 0x00, 0x00, 0x00, 0x00, 0x80, 0xFF, 0xFF, 0x01, 0x00, 0x00, 
  0x00, 0x00, 0x80, 0x01, 0x80, 0x01, 0x00, 0x00, 0x00, 0x00, 0x80, 0x01, 
  0x80, 0x01, 0x00, 0x00, 0x00, 0x00, 0xF8, 0x01, 0x80, 0x1F, 0x00, 0x00, 
  0x00, 0x00, 0xF8, 0x01, 0x80, 0x1F, 0x00, 0x00, 0x00, 0x00, 0x18, 0x00, 
  0x00, 0x18, 0x00, 0x00, 0x00, 0x00, 0x18, 0x00, 0x00, 0x18, 0x00, 0x00, 
  0x00, 0x80, 0x1F, 0x00, 0x00, 0xF8, 0x01, 0x00, 0x00, 0x80, 0x1F, 0x00, 
  0x00, 0xF8, 0x01, 0x00, 0x00, 0x80, 0x01, 0x00, 0x00, 0x80, 0x01, 0x00, 
  0x00, 0x80, 0x01, 0x00, 0x00, 0x80, 0x01, 0x00, 0x00, 0x80, 0x01, 0x00, 
  0x00, 0x80, 0x01, 0x00, 0x00, 0x80, 0x01, 0x00, 0x00, 0x80, 0x01, 0x00, 
  0x00, 0x80, 0x01, 0x00, 0x00, 0x80, 0x01, 0x00, 0x00, 0x80, 0x01, 0x00, 
  0x00, 0x80, 0x01, 0x00, 0x00, 0x80, 0x01, 0x00, 0x00, 0x80, 0x01, 0x00, 
  0x00, 0x80, 0x01, 0x00, 0x00, 0x80, 0x01, 0x00, 0x00, 0x80, 0x1F, 0x00, 
  0x00, 0xF8, 0x01, 0x00, 0x00, 0x80, 0x1F, 0x00, 0x00, 0xF8, 0x01, 0x00, 
  0x00, 0x00, 0x18, 0x00, 0x00, 0x18, 0x00, 0x00, 0x00, 0x00, 0x18, 0x00, 
  0x00, 0x18, 0x00, 0x00, 0x00, 0x00, 0xF8, 0x01, 0x80, 0x1F, 0x00, 0x00, 
  0x00, 0x00, 0xF8, 0x01, 0x80, 0x1F, 0x00, 0x00, 0x00, 0x00, 0x80, 0x01, 
  0x80, 0x01, 0x00, 0x00, 0x00, 0x00, 0x80, 0x01, 0x80, 0x01, 0x00, 0x00, 
  0x00, 0x00, 0x80, 0x01, 0x80, 0x01, 0x00, 0x00, 0x00, 0x00, 0x80, 0x01, 
  0x80, 0x01, 0x00, 0x00, 0x00, 0x00, 0x80, 0x01, 0x80, 0x01, 0x00, 0x00, 
  0x00, 0x00, 0x80, 0x01, 0x80, 0x01, 0x00, 0x00, 0x00, 0x00, 0x80, 0x01, 
  0x80, 0x01, 0x00, 0x00, 0x00, 0x00, 0x80, 0x01, 0x80, 0x01, 0x00, 0x00, 
  0x00, 0x00, 0x80, 0x01, 0x80, 0x01, 0x00, 0x00, 0x00, 0x00, 0x80, 0x01, 
  0x80, 0x01, 0x00, 0x00, 0x00, 0x00, 0x80, 0x01, 0x80, 0x01, 0x00, 0x00, 
  0x00, 0x00, 0x80, 0x01, 0x80, 0x01, 0x00, 0x00, 0x00, 0x00, 0xF8, 0x01, 
  0x80, 0x1F, 0x00, 0x00, 0x00, 0x00, 0xF8, 0x01, 0x80, 0x1F, 0x00, 0x00, 
  0x00, 0x00, 0x18, 0x00, 0x00, 0x18, 0x00, 0x00, 0x00, 0x00, 0x18, 0x00, 
  0x00, 0x18, 0x00, 0x00, 0x00, 0x00, 0x1F, 0x00, 0x00, 0xF8, 0x00, 0x00, 
  0x00, 0x00, 0x1F, 0x00, 0x00, 0xF8, 0x00, 0x00, 0x00, 0x00, 0x03, 0x00, 
  0x00, 0xC0, 0x00, 0x00, 0x00, 0x00, 0x03, 0x00, 0x00, 0xC0, 0x00, 0x00, 
  0x00, 0xF0, 0x03, 0x00, 0x00, 0xC0, 0x0F, 0x00, 0x00, 0xF0, 0x03, 0x00, 
  0x00, 0xC0, 0x0F, 0x00, 0x00, 0x30, 0x00, 0x00, 0x00, 0x00, 0x0C, 0x00, 
  0x00, 0x30, 0x00, 0x00, 0x00, 0x00, 0x0C, 0x00, 0x00, 0x3F, 0x00, 0x00, 
  0x00, 0x00, 0xFC, 0x00, 0x00, 0x3F, 0x00, 0x00, 0x00, 0x00, 0xFC, 0x00, 
  0x00, 0x03, 0x00, 0x00, 0x00, 0x00, 0xC0, 0x00, 0x00, 0x03, 0x00, 0x00, 
  0x00, 0x00, 0xC0, 0x00, 0x00, 0x03, 0x00, 0x00, 0x00, 0x00, 0xC0, 0x00, 
  0x00, 0x03, 0x00, 0x00, 0x00, 0x00, 0xC0, 0x00, 0x00, 0xFF, 0xFF, 0xFF, 
  0xFF, 0xFF, 0xFF, 0x00, 0x00, 0xFF, 0xFF, 0xFF, 0xFF, 0xFF, 0xFF, 0x00, 
  0x00, 0x00, 0x00, 0x00, 0x00, 0x00, 0x00, 0x00, 0x00, 0x00, 0x00, 0x00, 
  0x00, 0x00, 0x00, 0x00, 0x00, 0x00, 0x00, 0x00, 0x00, 0x00, 0x00, 0x00, 
  0x00, 0x00, 0x00, 0x00, 0x00, 0x00, 0x00, 0x00, };
