#define 776f34808b304401e21b9ed0be7f272a21xe3Xux330ipEL8_width 64
#define 776f34808b304401e21b9ed0be7f272a21xe3Xux330ipEL8_height 64
static char 776f34808b304401e21b9ed0be7f272a21xe3Xux330ipEL8_bits[] = {
  0x21, 0x84, 0x10, 0x42, 0x08, 0x21, 0x84, 0x10, 0x10, 0x42, 0x08, 0x21, 
  0x84, 0x10, 0x42, 0x08, 0x08, 0x21, 0x84, 0x10, 0x42, 0x08, 0x21, 0x84, 
  0x84, 0x10, 0x42, 0x08, 0x21, 0x84, 0x10, 0x42, 0x42, 0x08, 0xA1, 0xFF, 
  0x13, 0x42, 0x08, 0x21, 0x21, 0x84, 0x90, 0xFF, 0x0B, 0x21, 0x84, 0x10, 
  0x10, 0x42, 0x88, 0x01, 0x87, 0x10, 0x42, 0x08, 0xE8, 0xFF, 0xFF, 0x01, 
  0x7F, 0x08, 0x21, 0x84, 0xE4, 0xFF, 0xFF, 0x01, 0x7F, 0x84, 0x10, 0x42, 
  0xE2, 0x01, 0x00, 0x00, 0x60, 0x42, 0x08, 0x21, 0xE1, 0x01, 0x00, 0x00, 
  0xE0, 0x27, 0x84, 0x10, 0x90, 0x07, 0x00, 0x00, 0xE0, 0x17, 0x42, 0x08, 
  0x88, 0x07, 0x00, 0x00, 0x00, 0x7E, 0x21, 0x84, 0x84, 0x06, 0x00, 0x00, 
  0x00, 0xFE, 0x10, 0x42, 0x42, 0x06, 0x00, 0x00, 0x00, 0x60, 0x08, 0x21, 
  0x21, 0x06, 0x00, 0x00, 0x00, 0x60, 0x84, 0x10, 0x10, 0x7E, 0x00, 0x00, 
  0x00, 0xE0, 0x5F, 0x08, 0x08, 0x7F, 0x00, 0x00, 0x00, 0xE0, 0x3F, 0x84, 
  0x84, 0x70, 0x00, 0x00, 0xC0, 0x03, 0x18, 0x42, 0x42, 0x68, 0x00, 0x00, 
  0xC0, 0x03, 0x18, 0x21, 0x21, 0x64, 0x00, 0x00, 0xC0, 0x03, 0xF8, 0x10, 
  0x10, 0x7A, 0x00, 0x00, 0xC0, 0x03, 0x78, 0x08, 0x08, 0x79, 0x00, 0x00, 
  0x00, 0x00, 0x60, 0x84, 0x84, 0x18, 0x00, 0x00, 0x00, 0x00, 0x60, 0x42, 
  0x42, 0x18, 0x00, 0x00, 0x00, 0x00, 0x60, 0x21, 0x21, 0x1E, 0x00, 0x00, 
  0x00, 0x00, 0xE0, 0x10, 0x10, 0x1E, 0x00, 0x00, 0x00, 0xF8, 0x67, 0x08, 
  0x08, 0x07, 0x00, 0x00, 0x00, 0xF8, 0x67, 0x84, 0x84, 0x06, 0x00, 0x00, 
  0x00, 0xF8, 0x67, 0x42, 0x42, 0x06, 0x00, 0x00, 0x00, 0xF8, 0x67, 0x21, 
  0x21, 0x06, 0x00, 0x00, 0x00, 0x00, 0xE0, 0x10, 0x10, 0x3E, 0x00, 0x00, 
  0x00, 0x00, 0x60, 0x08, 0x08, 0x3F, 0x00, 0x00, 0x00, 0x00, 0x7E, 0x84, 
  0x84, 0x30, 0x00, 0x00, 0x00, 0x00, 0x7E, 0x42, 0x42, 0x38, 0x00, 0x00, 
  0x00, 0x80, 0x0F, 0x21, 0x21, 0x34, 0x00, 0x00, 0x00, 0x80, 0x87, 0x10, 
  0x10, 0xF2, 0x03, 0x00, 0x00, 0x80, 0x43, 0x08, 0x08, 0xF1, 0x03, 0x00, 
  0x00, 0xFC, 0x21, 0x84, 0x84, 0x10, 0x3F, 0x00, 0x00, 0xFC, 0x11, 0x42, 
  0x42, 0x08, 0x3F, 0x00, 0x00, 0x4C, 0x08, 0x21, 0x21, 0x84, 0x30, 0x00, 
  0x00, 0x2C, 0x84, 0x10, 0x10, 0x42, 0x38, 0x00, 0x00, 0x1C, 0x42, 0x08, 
  0x08, 0x21, 0x3C, 0x00, 0x00, 0x3C, 0x21, 0x84, 0x84, 0x10, 0x3E, 0x00, 
  0x00, 0xBC, 0x10, 0x42, 0x42, 0x08, 0x0F, 0x00, 0x00, 0xF0, 0x08, 0x21, 
  0x21, 0x84, 0x0F, 0x00, 0x00, 0xF0, 0x84, 0x10, 0x10, 0x42, 0x03, 0x00, 
  0x00, 0xC0, 0x42, 0x08, 0x08, 0x21, 0x03, 0x00, 0x00, 0xC0, 0x21, 0x84, 
  0x84, 0xF0, 0x03, 0x00, 0x00, 0xC0, 0x1F, 0x42, 0x42, 0xF8, 0x03, 0x00, 
  0x00, 0xC0, 0x0F, 0x21, 0x21, 0x34, 0x00, 0x00, 0x00, 0x00, 0x8C, 0x10, 
  0x10, 0x32, 0x00, 0x00, 0x00, 0x00, 0x4C, 0x08, 0x08, 0x3F, 0x00, 0x00, 
  0x00, 0x00, 0xFC, 0x84, 0x84, 0x3F, 0x00, 0x00, 0x00, 0x00, 0xFC, 0x42, 
  0x42, 0x03, 0x00, 0x00, 0x00, 0x00, 0xC0, 0x21, 0x21, 0x03, 0x00, 0x00, 
  0x00, 0x00, 0xC0, 0x10, 0x10, 0x03, 0x00, 0x00, 0x00, 0x00, 0xC0, 0x08, 
  0x08, 0x03, 0x00, 0x00, 0x00, 0x00, 0xC0, 0x84, 0x84, 0xFF, 0xFF, 0xFF, 
  0xFF, 0xFF, 0xFF, 0x42, 0x42, 0xFF, 0xFF, 0xFF, 0xFF, 0xFF, 0xFF, 0x21, 
  0x21, 0x84, 0x10, 0x42, 0x08, 0x21, 0x84, 0x10, 0x10, 0x42, 0x08, 0x21, 
  0x84, 0x10, 0x42, 0x08, 0x08, 0x21, 0x84, 0x10, 0x42, 0x08, 0x21, 0x84, 
  0x84, 0x10, 0x42, 0x08, 0x21, 0x84, 0x10, 0x42, };
