#define WhiteQ_width 64
#define WhiteQ_height 64
static char WhiteQ_bits[] = {
  0x00, 0x00, 0x00, 0x00, 0x00, 0x00, 0x00, 0x00, 0x00, 0x00, 0x00, 0x00, 
  0x00, 0x00, 0x00, 0x00, 0x00, 0x00, 0x00, 0x00, 0x00, 0x00, 0x00, 0x00, 
  0x00, 0x00, 0x00, 0x00, 0x00, 0x00, 0x00, 0x00, 0xF0, 0x0F, 0x00, 0xF0, 
  0x0F, 0x00, 0xF0, 0x0F, 0xF0, 0x0F, 0x00, 0xF0, 0x0F, 0x00, 0xF0, 0x0F, 
  0x30, 0x0C, 0x00, 0x30, 0x0C, 0x00, 0x30, 0x0C, 0x30, 0x0C, 0x00, 0x30, 
  0x0C, 0x00, 0x30, 0x0C, 0x30, 0xFC, 0x00, 0x30, 0x0C, 0x00, 0x3F, 0x0C, 
  0x30, 0xFC, 0x00, 0x30, 0x0C, 0x00, 0x3F, 0x0C, 0xF0, 0xC3, 0x00, 0x3C, 
  0x3C, 0x00, 0xC3, 0x0F, 0xF0, 0xC3, 0x00, 0x3C, 0x3C, 0x00, 0xC3, 0x0F, 
  0x00, 0xC3, 0x0F, 0x0F, 0xF0, 0xF0, 0xC3, 0x00, 0x00, 0xC3, 0x0F, 0x0F, 
  0xF0, 0xF0, 0xC3, 0x00, 0x00, 0x3F, 0x0C, 0x03, 0xC0, 0x30, 0xFC, 0x00, 
  0x00, 0x3F, 0x0C, 0x03, 0xC0, 0x30, 0xFC, 0x00, 0x00, 0x30, 0xFC, 0x03, 
  0xC0, 0x3F, 0x0C, 0x00, 0x00, 0x30, 0xFC, 0x03, 0xC0, 0x3F, 0x0C, 0x00, 
  0x00, 0x30, 0x00, 0x00, 0x00, 0x00, 0x0C, 0x00, 0x00, 0x30, 0x00, 0x00, 
  0x00, 0x00, 0x0C, 0x00, 0xF0, 0x3F, 0x00, 0x00, 0x00, 0x00, 0xFC, 0x0F, 
  0xF0, 0x3F, 0x00, 0x00, 0x00, 0x00, 0xFC, 0x0F, 0x30, 0x00, 0x00, 0x00, 
  0x00, 0x00, 0x00, 0x0C, 0x30, 0x00, 0x00, 0x00, 0x00, 0x00, 0x00, 0x0C, 
  0x30, 0xFC, 0x03, 0x00, 0x00, 0xC0, 0x3F, 0x0C, 0x30, 0xFC, 0x03, 0x00, 
  0x00, 0xC0, 0x3F, 0x0C, 0xF0, 0x0F, 0x0F, 0x00, 0x00, 0xF0, 0xF0, 0x0F, 
  0xF0, 0x0F, 0x0F, 0x00, 0x00, 0xF0, 0xF0, 0x0F, 0x00, 0x00, 0x3C, 0x00, 
  0x00, 0x3C, 0x00, 0x00, 0x00, 0x00, 0x3C, 0x00, 0x00, 0x3C, 0x00, 0x00, 
  0x00, 0x00, 0x30, 0x00, 0x00, 0x0C, 0x00, 0x00, 0x00, 0x00, 0x30, 0x00, 
  0x00, 0x0C, 0x00, 0x00, 0x00, 0x00, 0x30, 0x00, 0x00, 0x0C, 0x00, 0x00, 
  0x00, 0x00, 0x30, 0x00, 0x00, 0x0C, 0x00, 0x00, 0x00, 0x00, 0x30, 0x00, 
  0x00, 0x0C, 0x00, 0x00, 0x00, 0x00, 0x30, 0x00, 0x00, 0x0C, 0x00, 0x00, 
  0x00, 0x00, 0x30, 0x00, 0x00, 0x0C, 0x00, 0x00, 0x00, 0x00, 0x30, 0x00, 
  0x00, 0x0C, 0x00, 0x00, 0x00, 0x00, 0x30, 0x00, 0x00, 0x0C, 0x00, 0x00, 
  0x00, 0x00, 0x30, 0x00, 0x00, 0x0C, 0x00, 0x00, 0x00, 0x00, 0x30, 0x00, 
  0x00, 0x0C, 0x00, 0x00, 0x00, 0x00, 0x30, 0x00, 0x00, 0x0C, 0x00, 0x00, 
  0x00, 0x00, 0x30, 0x00, 0x00, 0x0C, 0x00, 0x00, 0x00, 0x00, 0x30, 0x00, 
  0x00, 0x0C, 0x00, 0x00, 0x00, 0x00, 0x3F, 0x00, 0x00, 0xFC, 0x00, 0x00, 
  0x00, 0x00, 0x3F, 0x00, 0x00, 0xFC, 0x00, 0x00, 0x00, 0x00, 0x03, 0x00, 
  0x00, 0xC0, 0x00, 0x00, 0x00, 0x00, 0x03, 0x00, 0x00, 0xC0, 0x00, 0x00, 
  0x00, 0xF0, 0x03, 0x00, 0x00, 0xC0, 0x0F, 0x00, 0x00, 0xF0, 0x03, 0x00, 
  0x00, 0xC0, 0x0F, 0x00, 0x00, 0x30, 0x00, 0x00, 0x00, 0x00, 0x0C, 0x00, 
  0x00, 0x30, 0x00, 0x00, 0x00, 0x00, 0x0C, 0x00, 0x00, 0x3F, 0x00, 0x00, 
  0x00, 0x00, 0xFC, 0x00, 0x00, 0x3F, 0x00, 0x00, 0x00, 0x00, 0xFC, 0x00, 
  0x00, 0x03, 0x00, 0x00, 0x00, 0x00, 0xC0, 0x00, 0x00, 0x03, 0x00, 0x00, 
  0x00, 0x00, 0xC0, 0x00, 0x00, 0x03, 0x00, 0x00, 0x00, 0x00, 0xC0, 0x00, 
  0x00, 0x03, 0x00, 0x00, 0x00, 0x00, 0xC0, 0x00, 0x00, 0xFF, 0xFF, 0xFF, 
  0xFF, 0xFF, 0xFF, 0x00, 0x00, 0xFF, 0xFF, 0xFF, 0xFF, 0xFF, 0xFF, 0x00, 
  0x00, 0x00, 0x00, 0x00, 0x00, 0x00, 0x00, 0x00, 0x00, 0x00, 0x00, 0x00, 
  0x00, 0x00, 0x00, 0x00, 0x00, 0x00, 0x00, 0x00, 0x00, 0x00, 0x00, 0x00, 
  0x00, 0x00, 0x00, 0x00, 0x00, 0x00, 0x00, 0x00, };
