#define 71cd582d0ffa47528aaae751e7919d91XquXxKdqZYFDk4kH_width 64
#define 71cd582d0ffa47528aaae751e7919d91XquXxKdqZYFDk4kH_height 64
static char 71cd582d0ffa47528aaae751e7919d91XquXxKdqZYFDk4kH_bits[] = {
  0x21, 0x84, 0x10, 0x42, 0x08, 0x21, 0x84, 0x10, 0x10, 0x42, 0x08, 0x21, 
  0x84, 0x10, 0x42, 0x08, 0x08, 0x21, 0x84, 0x10, 0x42, 0x08, 0x21, 0x84, 
  0x84, 0x10, 0x42, 0x08, 0x21, 0x84, 0x10, 0x42, 0xF2, 0x0F, 0x21, 0xF4, 
  0x1F, 0x42, 0xF8, 0x2F, 0xF1, 0x8F, 0x10, 0xF2, 0x0F, 0x21, 0xF4, 0x1F, 
  0x30, 0x4C, 0x08, 0x31, 0x8C, 0x10, 0x32, 0x0C, 0x38, 0x2C, 0x84, 0x30, 
  0x4C, 0x08, 0x31, 0x8C, 0x34, 0xFC, 0x42, 0x38, 0x2C, 0x84, 0x3F, 0x4C, 
  0x32, 0xFC, 0x21, 0x34, 0x1C, 0x42, 0x3F, 0x2C, 0xF1, 0xC3, 0x10, 0x3E, 
  0x3C, 0x21, 0xC3, 0x1F, 0xF0, 0xC3, 0x08, 0x3D, 0xBC, 0x10, 0xC3, 0x0F, 
  0x08, 0xC3, 0x8F, 0x0F, 0xF0, 0xF8, 0xC3, 0x84, 0x84, 0xC3, 0x4F, 0x0F, 
  0xF0, 0xF4, 0xC3, 0x42, 0x42, 0x3F, 0x2C, 0x03, 0xC0, 0x32, 0xFC, 0x21, 
  0x21, 0x3F, 0x1C, 0x03, 0xC0, 0x31, 0xFC, 0x10, 0x10, 0x32, 0xFC, 0x03, 
  0xC0, 0x3F, 0x4C, 0x08, 0x08, 0x31, 0xFC, 0x03, 0xC0, 0x3F, 0x2C, 0x84, 
  0x84, 0x30, 0x00, 0x00, 0x00, 0x00, 0x1C, 0x42, 0x42, 0x38, 0x00, 0x00, 
  0x00, 0x00, 0x0C, 0x21, 0xF1, 0x3F, 0x00, 0x00, 0x00, 0x00, 0xFC, 0x1F, 
  0xF0, 0x3F, 0x00, 0x00, 0x00, 0x00, 0xFC, 0x0F, 0x38, 0x00, 0x00, 0x00, 
  0x00, 0x00, 0x00, 0x8C, 0x34, 0x00, 0x00, 0x00, 0x00, 0x00, 0x00, 0x4C, 
  0x32, 0xFC, 0x03, 0x00, 0x00, 0xC0, 0x3F, 0x2C, 0x31, 0xFC, 0x03, 0x00, 
  0x00, 0xC0, 0x3F, 0x1C, 0xF0, 0x4F, 0x0F, 0x00, 0x00, 0xF0, 0xF2, 0x0F, 
  0xF8, 0x2F, 0x0F, 0x00, 0x00, 0xF0, 0xF1, 0x8F, 0x84, 0x10, 0x3E, 0x00, 
  0x00, 0xBC, 0x10, 0x42, 0x42, 0x08, 0x3D, 0x00, 0x00, 0x7C, 0x08, 0x21, 
  0x21, 0x84, 0x30, 0x00, 0x00, 0x2C, 0x84, 0x10, 0x10, 0x42, 0x38, 0x00, 
  0x00, 0x1C, 0x42, 0x08, 0x08, 0x21, 0x34, 0x00, 0x00, 0x0C, 0x21, 0x84, 
  0x84, 0x10, 0x32, 0x00, 0x00, 0x8C, 0x10, 0x42, 0x42, 0x08, 0x31, 0x00, 
  0x00, 0x4C, 0x08, 0x21, 0x21, 0x84, 0x30, 0x00, 0x00, 0x2C, 0x84, 0x10, 
  0x10, 0x42, 0x38, 0x00, 0x00, 0x1C, 0x42, 0x08, 0x08, 0x21, 0x34, 0x00, 
  0x00, 0x0C, 0x21, 0x84, 0x84, 0x10, 0x32, 0x00, 0x00, 0x8C, 0x10, 0x42, 
  0x42, 0x08, 0x31, 0x00, 0x00, 0x4C, 0x08, 0x21, 0x21, 0x84, 0x30, 0x00, 
  0x00, 0x2C, 0x84, 0x10, 0x10, 0x42, 0x38, 0x00, 0x00, 0x1C, 0x42, 0x08, 
  0x08, 0x21, 0x34, 0x00, 0x00, 0x0C, 0x21, 0x84, 0x84, 0x10, 0x32, 0x00, 
  0x00, 0x8C, 0x10, 0x42, 0x42, 0x08, 0x3F, 0x00, 0x00, 0xFC, 0x08, 0x21, 
  0x21, 0x84, 0x3F, 0x00, 0x00, 0xFC, 0x84, 0x10, 0x10, 0x42, 0x03, 0x00, 
  0x00, 0xC0, 0x42, 0x08, 0x08, 0x21, 0x03, 0x00, 0x00, 0xC0, 0x21, 0x84, 
  0x84, 0xF0, 0x03, 0x00, 0x00, 0xC0, 0x1F, 0x42, 0x42, 0xF8, 0x03, 0x00, 
  0x00, 0xC0, 0x0F, 0x21, 0x21, 0x34, 0x00, 0x00, 0x00, 0x00, 0x8C, 0x10, 
  0x10, 0x32, 0x00, 0x00, 0x00, 0x00, 0x4C, 0x08, 0x08, 0x3F, 0x00, 0x00, 
  0x00, 0x00, 0xFC, 0x84, 0x84, 0x3F, 0x00, 0x00, 0x00, 0x00, 0xFC, 0x42, 
  0x42, 0x03, 0x00, 0x00, 0x00, 0x00, 0xC0, 0x21, 0x21, 0x03, 0x00, 0x00, 
  0x00, 0x00, 0xC0, 0x10, 0x10, 0x03, 0x00, 0x00, 0x00, 0x00, 0xC0, 0x08, 
  0x08, 0x03, 0x00, 0x00, 0x00, 0x00, 0xC0, 0x84, 0x84, 0xFF, 0xFF, 0xFF, 
  0xFF, 0xFF, 0xFF, 0x42, 0x42, 0xFF, 0xFF, 0xFF, 0xFF, 0xFF, 0xFF, 0x21, 
  0x21, 0x84, 0x10, 0x42, 0x08, 0x21, 0x84, 0x10, 0x10, 0x42, 0x08, 0x21, 
  0x84, 0x10, 0x42, 0x08, 0x08, 0x21, 0x84, 0x10, 0x42, 0x08, 0x21, 0x84, 
  0x84, 0x10, 0x42, 0x08, 0x21, 0x84, 0x10, 0x42, };
