#define b8566dced67a44fb853f7c18e7614826pzplFd8p7BvOxjzP_width 64
#define b8566dced67a44fb853f7c18e7614826pzplFd8p7BvOxjzP_height 64
static char b8566dced67a44fb853f7c18e7614826pzplFd8p7BvOxjzP_bits[] = {
  0x21, 0x84, 0x10, 0x42, 0x08, 0x21, 0x84, 0x10, 0x10, 0x42, 0x08, 0x21, 
  0x84, 0x10, 0x42, 0x08, 0x08, 0x21, 0x84, 0x10, 0x42, 0x08, 0x21, 0x84, 
  0x84, 0x10, 0x42, 0x08, 0x21, 0x84, 0x10, 0x42, 0x42, 0x08, 0xA1, 0xFF, 
  0xFF, 0x43, 0x08, 0x21, 0x21, 0x84, 0x90, 0xFF, 0xFF, 0x21, 0x84, 0x10, 
  0x10, 0x42, 0x88, 0x01, 0x80, 0x11, 0x42, 0x08, 0x08, 0x21, 0x84, 0x01, 
  0x80, 0x09, 0x21, 0x84, 0x84, 0x10, 0xFA, 0x01, 0x80, 0x9F, 0x10, 0x42, 
  0x42, 0x08, 0xF9, 0x01, 0x80, 0x5F, 0x08, 0x21, 0x21, 0x84, 0x18, 0x00, 
  0x00, 0x38, 0x84, 0x10, 0x10, 0x42, 0x18, 0x00, 0x00, 0x18, 0x42, 0x08, 
  0x08, 0xA1, 0x1F, 0x00, 0x00, 0xF8, 0x21, 0x84, 0x84, 0x90, 0x1F, 0x00, 
  0x00, 0xF8, 0x11, 0x42, 0x42, 0x88, 0x01, 0x00, 0x00, 0x80, 0x09, 0x21, 
  0x21, 0x84, 0x01, 0x00, 0x00, 0x80, 0x85, 0x10, 0x10, 0xC2, 0x01, 0x00, 
  0x00, 0x80, 0x43, 0x08, 0x08, 0xA1, 0x01, 0x00, 0x00, 0x80, 0x21, 0x84, 
  0x84, 0x90, 0x01, 0x00, 0x00, 0x80, 0x11, 0x42, 0x42, 0x88, 0x01, 0x00, 
  0x00, 0x80, 0x09, 0x21, 0x21, 0x84, 0x01, 0x00, 0x00, 0x80, 0x85, 0x10, 
  0x10, 0xC2, 0x01, 0x00, 0x00, 0x80, 0x43, 0x08, 0x08, 0xA1, 0x1F, 0x00, 
  0x00, 0xF8, 0x21, 0x84, 0x84, 0x90, 0x1F, 0x00, 0x00, 0xF8, 0x11, 0x42, 
  0x42, 0x08, 0x19, 0x00, 0x00, 0x58, 0x08, 0x21, 0x21, 0x84, 0x18, 0x00, 
  0x00, 0x38, 0x84, 0x10, 0x10, 0x42, 0xF8, 0x01, 0x80, 0x1F, 0x42, 0x08, 
  0x08, 0x21, 0xFC, 0x01, 0x80, 0x1F, 0x21, 0x84, 0x84, 0x10, 0xC2, 0x01, 
  0x80, 0x85, 0x10, 0x42, 0x42, 0x08, 0xA1, 0x01, 0x80, 0x43, 0x08, 0x21, 
  0x21, 0x84, 0x90, 0x01, 0x80, 0x21, 0x84, 0x10, 0x10, 0x42, 0x88, 0x01, 
  0x80, 0x11, 0x42, 0x08, 0x08, 0x21, 0x84, 0x01, 0x80, 0x09, 0x21, 0x84, 
  0x84, 0x10, 0xC2, 0x01, 0x80, 0x85, 0x10, 0x42, 0x42, 0x08, 0xA1, 0x01, 
  0x80, 0x43, 0x08, 0x21, 0x21, 0x84, 0x90, 0x01, 0x80, 0x21, 0x84, 0x10, 
  0x10, 0x42, 0x88, 0x01, 0x80, 0x11, 0x42, 0x08, 0x08, 0x21, 0x84, 0x01, 
  0x80, 0x09, 0x21, 0x84, 0x84, 0x10, 0xC2, 0x01, 0x80, 0x85, 0x10, 0x42, 
  0x42, 0x08, 0xA1, 0x01, 0x80, 0x43, 0x08, 0x21, 0x21, 0x84, 0xF8, 0x01, 
  0x80, 0x3F, 0x84, 0x10, 0x10, 0x42, 0xF8, 0x01, 0x80, 0x1F, 0x42, 0x08, 
  0x08, 0x21, 0x1C, 0x00, 0x00, 0x18, 0x21, 0x84, 0x84, 0x10, 0x1A, 0x00, 
  0x00, 0x98, 0x10, 0x42, 0x42, 0x08, 0x1F, 0x00, 0x00, 0xF8, 0x08, 0x21, 
  0x21, 0x84, 0x1F, 0x00, 0x00, 0xF8, 0x84, 0x10, 0x10, 0x42, 0x03, 0x00, 
  0x00, 0xC0, 0x42, 0x08, 0x08, 0x21, 0x03, 0x00, 0x00, 0xC0, 0x21, 0x84, 
  0x84, 0xF0, 0x03, 0x00, 0x00, 0xC0, 0x1F, 0x42, 0x42, 0xF8, 0x03, 0x00, 
  0x00, 0xC0, 0x0F, 0x21, 0x21, 0x34, 0x00, 0x00, 0x00, 0x00, 0x8C, 0x10, 
  0x10, 0x32, 0x00, 0x00, 0x00, 0x00, 0x4C, 0x08, 0x08, 0x3F, 0x00, 0x00, 
  0x00, 0x00, 0xFC, 0x84, 0x84, 0x3F, 0x00, 0x00, 0x00, 0x00, 0xFC, 0x42, 
  0x42, 0x03, 0x00, 0x00, 0x00, 0x00, 0xC0, 0x21, 0x21, 0x03, 0x00, 0x00, 
  0x00, 0x00, 0xC0, 0x10, 0x10, 0x03, 0x00, 0x00, 0x00, 0x00, 0xC0, 0x08, 
  0x08, 0x03, 0x00, 0x00, 0x00, 0x00, 0xC0, 0x84, 0x84, 0xFF, 0xFF, 0xFF, 
  0xFF, 0xFF, 0xFF, 0x42, 0x42, 0xFF, 0xFF, 0xFF, 0xFF, 0xFF, 0xFF, 0x21, 
  0x21, 0x84, 0x10, 0x42, 0x08, 0x21, 0x84, 0x10, 0x10, 0x42, 0x08, 0x21, 
  0x84, 0x10, 0x42, 0x08, 0x08, 0x21, 0x84, 0x10, 0x42, 0x08, 0x21, 0x84, 
  0x84, 0x10, 0x42, 0x08, 0x21, 0x84, 0x10, 0x42, };
